<svg fill="currentColor" stroke="currentColor" version="1.1" viewBox="143 143 514 514"
     xmlns="http://www.w3.org/2000/svg">
    <g id="IconSvg_tracerCarrier" stroke-linecap="round" stroke-linejoin="round" stroke-width="0">
        <path xmlns="http://www.w3.org/2000/svg"
              d="m198.01 418.83-40.777-63.168 20.785-13.422 13.391 20.746 0.003906 0.003907c8.5352-48.273 33.551-92.086 70.781-123.97 37.234-31.887 84.375-49.863 133.38-50.867 49.012-1.0039 96.848 15.027 135.36 45.359 36.566 28.848 62.664 68.891 74.297 113.99l-23.973 6.1133v0.003906c-10.281-39.832-33.336-75.195-65.633-100.67-34.301-26.961-76.945-41.086-120.56-39.93-43.613 1.1523-85.449 17.508-118.28 46.242-32.828 28.73-54.586 68.035-61.504 111.11l22.484-19.988 16.438 18.488zm403.98-37.668-56.191 49.957 16.441 18.488 22.484-19.988h-0.003906c-6.9141 43.078-28.668 82.387-61.5 111.12-32.828 28.738-74.672 45.094-118.29 46.246-43.613 1.1484-86.262-12.98-120.56-39.945-32.301-25.473-55.355-60.836-65.633-100.67l-23.973 6.1133-0.003906 0.003907c11.629 45.59 38.121 86.004 75.289 114.86 37.168 28.852 82.895 44.488 129.95 44.445 49.754-0.011719 97.922-17.531 136.06-49.488 38.137-31.957 63.812-76.312 72.527-125.3l13.391 20.746 20.785-13.422z" />
    </g>
    <g id="IconSvg_iconCarrier">
        <path xmlns="http://www.w3.org/2000/svg"
              d="m198.01 418.83-40.777-63.168 20.785-13.422 13.391 20.746 0.003906 0.003907c8.5352-48.273 33.551-92.086 70.781-123.97 37.234-31.887 84.375-49.863 133.38-50.867 49.012-1.0039 96.848 15.027 135.36 45.359 36.566 28.848 62.664 68.891 74.297 113.99l-23.973 6.1133v0.003906c-10.281-39.832-33.336-75.195-65.633-100.67-34.301-26.961-76.945-41.086-120.56-39.93-43.613 1.1523-85.449 17.508-118.28 46.242-32.828 28.73-54.586 68.035-61.504 111.11l22.484-19.988 16.438 18.488zm403.98-37.668-56.191 49.957 16.441 18.488 22.484-19.988h-0.003906c-6.9141 43.078-28.668 82.387-61.5 111.12-32.828 28.738-74.672 45.094-118.29 46.246-43.613 1.1484-86.262-12.98-120.56-39.945-32.301-25.473-55.355-60.836-65.633-100.67l-23.973 6.1133-0.003906 0.003907c11.629 45.59 38.121 86.004 75.289 114.86 37.168 28.852 82.895 44.488 129.95 44.445 49.754-0.011719 97.922-17.531 136.06-49.488 38.137-31.957 63.812-76.312 72.527-125.3l13.391 20.746 20.785-13.422z" />
    </g>
</svg>