<svg fill="currentColor" stroke="currentColor" version="1.1" viewBox="144 144 512 512"
     xmlns="http://www.w3.org/2000/svg">
    <g id="IconSvg_bgCarrier" stroke-width="0"></g>
    <g id="IconSvg_tracerCarrier" stroke-linecap="round" stroke-linejoin="round" stroke="currentColor"></g>
    <g id="IconSvg_iconCarrier">
        <path xmlns="http://www.w3.org/2000/svg"
              d="m624.61 234-57.012-57.012c-4.0625-4.0625-10.637-4.1055-14.75-0.09375l-32.113 31.312-0.078125 0.11328-0.10547 0.074219-24.297 24.91c-5.9844-4.1602-13.098-6.3906-20.383-6.3984h-265.77c-10.059-0.10938-19.734 3.8398-26.848 10.953-7.1133 7.1133-11.059 16.789-10.949 26.848v323.57c-0.10938 10.059 3.8398 19.734 10.949 26.848 7.1133 7.1133 16.789 11.062 26.848 10.953h265.77c10.059 0.10938 19.734-3.8398 26.848-10.953 7.1133-7.1133 11.059-16.789 10.949-26.848v-228.5l110.94-110.94c1.9688-1.9648 3.0742-4.6367 3.0742-7.418 0-2.7852-1.1055-5.4531-3.0742-7.4219zm-293.58 202.17 32.559 35.91-53.629 19.156zm161.64-55.387v207.5c0.050781 4.4727-1.7031 8.7773-4.8672 11.941-3.1641 3.1602-7.4648 4.918-11.938 4.8672h-265.77c-4.4727 0.050781-8.7734-1.707-11.938-4.8711-3.1602-3.1602-4.918-7.4648-4.8672-11.938v-323.57c-0.050781-4.4727 1.707-8.7734 4.8672-11.938 3.1641-3.1641 7.4648-4.918 11.938-4.8711h265.77c1.7383-0.011719 3.4648 0.26172 5.1172 0.80859l-161.06 160.31c-0.125 0.125-0.16797 0.29688-0.28906 0.42578-0.70312 0.76563-1.2891 1.6328-1.7344 2.5742-0.082031 0.17188-0.19531 0.32422-0.26953 0.49609l-0.10547 0.19141-35.332 92.332c-1.2344 3.2266-0.80078 6.8555 1.1602 9.7031 1.957 2.8438 5.1914 4.5469 8.6445 4.5469 1.2031 0.003907 2.3984-0.20703 3.5312-0.61719l89.93-32.113c0.10156-0.035156 0.1875-0.10547 0.28906-0.14453 0.19922-0.078124 0.36719-0.19141 0.55859-0.28125 0.98828-0.45703 1.9023-1.0664 2.7031-1.8086 0.10156-0.09375 0.24219-0.12891 0.33984-0.22656zm-110.37 80.684-31.199-34.41-9.2695-10.227 162.31-161.55 0.011718-0.019532 0.09375-0.09375 23.418-24.004 39.789 45.141zm200.03-200.04-39.801-45.16 17.547-17.105 42.262 42.258z"></path>

    </g>
</svg>