<svg fill="currentColor" stroke="currentColor" version="1.1" viewBox="144 144 512 512" xmlns="http://www.w3.org/2000/svg">
    <g id="IconSvg_bgCarrier" stroke-width="0"></g>
    <g id="IconSvg_tracerCarrier" stroke-linecap="round" stroke-linejoin="round" stroke="currentColor" stroke-width="0">
        <path xmlns="http://www.w3.org/2000/svg" d="m400 414.76c63.355 0 110.7-74.027 110.7-140.22 0-65.18-45.52-110.7-110.7-110.7-65.184 0-110.7 45.523-110.7 110.7 0 66.191 47.344 140.22 110.7 140.22zm0-236.16c57.387 0 95.941 38.555 95.941 95.941-0.003906 59.223-41.031 125.46-95.941 125.46s-95.941-66.238-95.941-125.46c0-57.387 38.555-95.941 95.941-95.941zm110.7 258.3h-221.4c-21.523 0.023437-42.156 8.5859-57.375 23.805s-23.781 35.852-23.805 57.375v110.7c0 4.0742 3.3047 7.3789 7.3789 7.3789h369c4.0742 0 7.3789-3.3047 7.3789-7.3789v-110.7c-0.023437-21.523-8.5859-42.156-23.805-57.375s-35.852-23.781-57.375-23.805zm66.418 184.5h-59.039v-81.18h-14.758v81.18h-206.64v-81.18h-14.762v81.18h-59.039v-103.32c0.019532-17.609 7.0234-34.492 19.477-46.941 12.449-12.453 29.332-19.457 46.941-19.477h221.4c17.609 0.019532 34.492 7.0234 46.941 19.477 12.453 12.449 19.457 29.332 19.477 46.941z"></path>
    </g>
    <g id="IconSvg_iconCarrier">
        <path xmlns="http://www.w3.org/2000/svg" d="m400 414.76c63.355 0 110.7-74.027 110.7-140.22 0-65.18-45.52-110.7-110.7-110.7-65.184 0-110.7 45.523-110.7 110.7 0 66.191 47.344 140.22 110.7 140.22zm0-236.16c57.387 0 95.941 38.555 95.941 95.941-0.003906 59.223-41.031 125.46-95.941 125.46s-95.941-66.238-95.941-125.46c0-57.387 38.555-95.941 95.941-95.941zm110.7 258.3h-221.4c-21.523 0.023437-42.156 8.5859-57.375 23.805s-23.781 35.852-23.805 57.375v110.7c0 4.0742 3.3047 7.3789 7.3789 7.3789h369c4.0742 0 7.3789-3.3047 7.3789-7.3789v-110.7c-0.023437-21.523-8.5859-42.156-23.805-57.375s-35.852-23.781-57.375-23.805zm66.418 184.5h-59.039v-81.18h-14.758v81.18h-206.64v-81.18h-14.762v81.18h-59.039v-103.32c0.019532-17.609 7.0234-34.492 19.477-46.941 12.449-12.453 29.332-19.457 46.941-19.477h221.4c17.609 0.019532 34.492 7.0234 46.941 19.477 12.453 12.449 19.457 29.332 19.477 46.941z"></path>
    </g>
</svg>